<svg xmlns="http://www.w3.org/2000/svg" viewBox="0 0 513 513">
  <defs>
    <style>
      .prefix__cls-1 {
        fill: #fff
      }
    </style>
  </defs>
  <g id="prefix__Layer_1" data-name="Layer 1">
    <path class="prefix__cls-1"
      d="M219.92 189.7c2.81-14.04 9.44-25.54 18.69-34.77-9.59-3.73-20.58-5.8-33.1-5.86-34.61 0-69.32-.31-103.93-.31v38.75h103.93c5.4-.03 10.21.74 14.41 2.19zM323.02 234c-26.22-3.12-48.74-8.45-48.74-27.46 0-16.26 14.65-29.06 45.23-29.06 23.79 0 44.39 11.82 51.86 24.34l32.79-16.84c-16.54-33.72-51.86-43.41-85.85-43.41-40.26.31-84.65 18.76-84.65 63.67 0 49.05 41.25 60.93 85.85 66.2 29.06 3.12 50.62 11.6 50.62 32.18 0 23.72-24.4 32.79-50.25 32.79-13.36 0-26.38-2.68-37.3-8.45l39.73 45.23c47.45-.83 88.69-21.87 88.69-69.54.03-52.2-42.45-64.01-87.98-69.66z"
      transform="matrix(1.6 0 0 1.6 -152 -152)" />
    <path class="prefix__cls-1"
      d="M235.09 297.15l-.31-.31-5.86-6.63c14.87-2.96 26.22-8.85 34.55-16.38-12.28-5.34-23.79-13.2-32.11-24.71-1.6 1.39-3.42 2.59-5.43 3.67h-.37c-3.36 1.76-7.16 3.12-11.51 3.89-.52.15-1.14.22-1.67.31-.68.15-1.51.22-2.28.22a44.3 44.3 0 01-4.57.22H101.6v110.29h41.18v-73.14h39.64l2.28 2.59 25.91 29.74.06.15 35.38 40.66h51.86l-52.69-59.11-10.15-11.45z"
      transform="matrix(1.6 0 0 1.6 -152 -152)" />
  </g>
</svg>